<svg xmlns="http://www.w3.org/2000/svg" viewBox="0 0 60.55 60.55"><defs><style>.cls-1{fill:#ee3026;}.cls-2{fill:none;stroke:#ee3026;stroke-miterlimit:10;stroke-width:1.5px;}</style></defs><title>Asset 3</title><g id="Layer_2" data-name="Layer 2"><g id="Layer_1-2" data-name="Layer 1"><rect class="cls-1" x="21.9" y="25.76" width="16.74" height="1.29"/><rect class="cls-1" x="21.9" y="21.9" width="16.74" height="1.28"/><path class="cls-1" d="M42.52,23.7V19.32a2.59,2.59,0,0,0-2.58-2.58H34.65l-4.38-3.86L25.9,16.74H20.61A2.59,2.59,0,0,0,18,19.32V23.7l-3.86,3.35v18a2.59,2.59,0,0,0,2.58,2.58h27a2.59,2.59,0,0,0,2.58-2.58v-18Zm0,1.68,1.93,1.67-1.93,1.67ZM30.27,14.56l2.45,2.19h-5Zm-11,4.77A1.22,1.22,0,0,1,20.61,18H39.94a1.39,1.39,0,0,1,1.29,1.29V29.76L37.1,33.5H23.45l-4.13-3.61Zm13.53,18H27.7l-2.83-2.57H35.56ZM18,25.38v3.48L16.1,27.05ZM15.85,46a1.17,1.17,0,0,1-.38-.9V28.34l10.3,9Zm1.55.39,9-7.73h7.72l9,7.73Zm27.69-9.66v8.37a1.17,1.17,0,0,1-.38.9l-9.92-8.63,10.3-9Zm0,0"/><rect class="cls-1" x="21.9" y="29.63" width="16.74" height="1.29"/><circle class="cls-2" cx="30.27" cy="30.27" r="29.52"/></g></g></svg>