<svg xmlns="http://www.w3.org/2000/svg" viewBox="0 0 111.67 111.67"><defs><style>.cls-1{fill:#ee2e24;}.cls-2{fill:none;stroke:#fff;stroke-miterlimit:10;stroke-width:4px;}.cls-3{fill:#fff;}</style></defs><title>Asset 1</title><g id="Layer_2" data-name="Layer 2"><g id="Layer_1-2" data-name="Layer 1"><circle class="cls-1" cx="55.83" cy="55.83" r="55.83"/><line class="cls-2" x1="41.37" y1="34.29" x2="41.37" y2="77.38"/><circle class="cls-1" cx="41.37" cy="47.4" r="5.23"/><path class="cls-3" d="M41.37,44.17a3.23,3.23,0,1,1-3.23,3.23,3.23,3.23,0,0,1,3.23-3.23m0-4A7.23,7.23,0,1,0,48.6,47.4a7.23,7.23,0,0,0-7.23-7.23Z"/><line class="cls-2" x1="55.83" y1="77.38" x2="55.83" y2="34.29"/><circle class="cls-1" cx="55.83" cy="64.26" r="5.23"/><path class="cls-3" d="M55.83,61a3.23,3.23,0,1,1-3.23,3.23A3.23,3.23,0,0,1,55.83,61m0-4a7.23,7.23,0,1,0,7.23,7.23A7.23,7.23,0,0,0,55.83,57Z"/><line class="cls-2" x1="70.32" y1="34.29" x2="70.32" y2="77.38"/><circle class="cls-1" cx="70.32" cy="47.4" r="5.23"/><path class="cls-3" d="M70.32,44.17a3.23,3.23,0,1,1-3.23,3.23,3.23,3.23,0,0,1,3.23-3.23m0-4a7.23,7.23,0,1,0,7.23,7.23,7.23,7.23,0,0,0-7.23-7.23Z"/></g></g></svg>