<svg xmlns="http://www.w3.org/2000/svg" viewBox="0 0 60.55 60.55"><defs><style>.cls-1{fill:#ee3026;stroke-width:0.25px;}.cls-1,.cls-2{stroke:#ee3026;stroke-miterlimit:10;}.cls-2{fill:none;stroke-width:1.5px;}</style></defs><title>Asset 2</title><g id="Layer_2" data-name="Layer 2"><g id="Layer_1-2" data-name="Layer 1"><path class="cls-1" d="M28.12,28.81H25a.55.55,0,1,0,0,1.1h3.15a.55.55,0,1,0,0-1.1Z"/><path class="cls-1" d="M44.62,44.41H41.47a.55.55,0,1,0,0,1.1h3.15a.55.55,0,0,0,0-1.1Z"/><path class="cls-1" d="M27.11,17.16H24a.55.55,0,0,0,0,1.1h3.15a.55.55,0,0,0,0-1.1Z"/><path class="cls-1" d="M28.12,30.64H25a.55.55,0,0,0,0,1.1h3.15a.55.55,0,0,0,0-1.1Z"/><path class="cls-1" d="M25,43.38h3.15a.55.55,0,1,0,0-1.1H25a.55.55,0,1,0,0,1.1Z"/><path class="cls-1" d="M25,45.21h3.15a.55.55,0,1,0,0-1.1H25a.55.55,0,1,0,0,1.1Z"/><path class="cls-1" d="M47.46,40.13H43.62V34.3a.55.55,0,0,0-1.1,0v5.82H38.27a1,1,0,0,0-1,1v5.48H31.06a.09.09,0,0,1-.09-.09V26.37a.09.09,0,0,1,.09-.09H34.3v6.26a.55.55,0,0,0,.89.43l1.56-1.24L38.31,33a.55.55,0,0,0,.89-.43V26.28h3.23a.09.09,0,0,1,.09.09v6.1a.55.55,0,1,0,1.1,0v-6.1a1.19,1.19,0,0,0-1.19-1.19H31V20.75a1.42,1.42,0,0,0-.19-.72,1,1,0,0,0,.19-.58V13.84a1,1,0,0,0-1-1H20.82a1,1,0,0,0-1,1v5.48H15.06a1.43,1.43,0,0,0-1.43,1.43V32.62a1.42,1.42,0,0,0,.3.88,1.42,1.42,0,0,0-.3.88V46.24a1.43,1.43,0,0,0,1.43,1.43H26.17a.55.55,0,1,0,0-1.1H15.06a.33.33,0,0,1-.33-.33V34.38a.33.33,0,0,1,.33-.33h4.79v6.26a.55.55,0,0,0,.89.43l1.56-1.24,1.56,1.24a.55.55,0,0,0,.89-.43V34h4.79a.33.33,0,0,1,.33.33V46.24a.33.33,0,0,1-.33.33H28.05a.55.55,0,1,0,0,1.1h1.49a1.42,1.42,0,0,0,.8-.24,1.18,1.18,0,0,0,.72.24h16.4a1,1,0,0,0,1-1V41.09A1,1,0,0,0,47.46,40.13ZM38.1,26.28v5.13l-1-.8a.55.55,0,0,0-.68,0l-1,.8V26.28ZM21,20.42h2.71v5.13l-1-.8a.55.55,0,0,0-.68,0l-1,.8Zm3.26-1.1H21V16.24h8.93v3.08H24.21ZM21,14h8.93v1.17H21Zm2.71,25.2-1-.8a.55.55,0,0,0-.68,0l-1,.8V34h2.71Zm.55-6.23H15.06a.33.33,0,0,1-.33-.33V20.75a.33.33,0,0,1,.33-.33h4.79v6.26a.55.55,0,0,0,.89.43l1.56-1.24,1.56,1.24a.55.55,0,0,0,.89-.43V20.42h4.79a.33.33,0,0,1,.33.33V32.62a.33.33,0,0,1-.33.33ZM38.4,41.23h8.93v1.17H38.4Zm0,5.35V43.49h8.93v3.08H38.4Z"/><circle class="cls-2" cx="30.27" cy="30.27" r="29.52"/></g></g></svg>