<svg xmlns="http://www.w3.org/2000/svg" viewBox="0 0 60.55 60.55"><defs><style>.cls-1{fill:#ee3026;}.cls-2{fill:none;stroke:#ee3026;stroke-miterlimit:10;stroke-width:1.5px;}</style></defs><title>Asset 5</title><g id="Layer_2" data-name="Layer 2"><g id="Layer_1-2" data-name="Layer 1"><path class="cls-1" d="M40.87,19.54a15.18,15.18,0,0,0-21.61.14.82.82,0,1,0,1.17,1.14,13.55,13.55,0,1,1-3.85,9.46V30.1l1.35,1.35a.82.82,0,0,0,.58.24.83.83,0,0,0,.58-.24.82.82,0,0,0,0-1.16l-2.74-2.75a.82.82,0,0,0-1.16,0L12.45,30.3a.82.82,0,0,0,1.16,1.16L15,30.1v.17A15.18,15.18,0,1,0,40.87,19.54Zm0,0"/><path class="cls-1" d="M34.48,24.75l-10,10a.82.82,0,0,0,.58,1.4.83.83,0,0,0,.58-.24l10-10a.82.82,0,1,0-1.16-1.15Zm0,0"/><path class="cls-1" d="M31.85,31.51a2.93,2.93,0,1,0,2.07-.86,2.93,2.93,0,0,0-2.07.86Zm3,3a1.27,1.27,0,0,1-.91.37,1.29,1.29,0,0,1-.91-2.2,1.27,1.27,0,0,1,.91-.37,1.29,1.29,0,0,1,.91,2.2Zm0,0"/><path class="cls-1" d="M26.37,24a2.93,2.93,0,1,0,2.07.86A2.91,2.91,0,0,0,26.37,24Zm.91,3.84a1.27,1.27,0,0,1-.91.37,1.3,1.3,0,0,1-.91-.37,1.27,1.27,0,0,1-.37-.91,1.3,1.3,0,0,1,.37-.91,1.27,1.27,0,0,1,.91-.37,1.3,1.3,0,0,1,.91.37,1.3,1.3,0,0,1,0,1.83Zm0,0"/><circle class="cls-2" cx="30.27" cy="30.27" r="29.52"/></g></g></svg>