<svg xmlns="http://www.w3.org/2000/svg" viewBox="0 0 277.82 44.93"><defs><style>.cls-1{fill:#ee2e24;}</style></defs><title>Asset 1</title><g id="Layer_2" data-name="Layer 2"><g id="Layer_1-2" data-name="Layer 1"><path d="M21.7,37.27V23.84H15.93L7.76,37.27H0L8.88,23a10.87,10.87,0,0,1-5-4.08A11.33,11.33,0,0,1,2,12.41a11,11,0,0,1,.87-4.34,11.82,11.82,0,0,1,2.4-3.63,11.24,11.24,0,0,1,3.65-2.5A11.49,11.49,0,0,1,13.53,1H28.69V37.27ZM21.7,7h-7.4a5,5,0,0,0-1.94.38A5.54,5.54,0,0,0,10.7,8.5a5,5,0,0,0-1.17,1.68,5.5,5.5,0,0,0-.43,2.22,5.36,5.36,0,0,0,1.46,3.93,4.84,4.84,0,0,0,3.6,1.48H21.7Z"/><path d="M41.59,27.52l12.66-17H59.3V37.27H52.51V20.73L40,37.27H34.8V10.52h6.79ZM56,0a6.32,6.32,0,0,1-2.4,5,9.45,9.45,0,0,1-6,1.81,9.44,9.44,0,0,1-6-1.81,6.32,6.32,0,0,1-2.4-5h3.78a3.49,3.49,0,0,0,1.25,2.86,5.48,5.48,0,0,0,3.4.92q4.39,0,4.7-3.78Z"/><path d="M65.19,10.52H72V31.35h8.88V10.52h6.79V31.35H92V44.93H86V37.27H65.19Z"/><path class="cls-1" d="M107.68,37.78a14.68,14.68,0,0,1-5.87-1.12,13.18,13.18,0,0,1-4.42-3,13.41,13.41,0,0,1-2.78-4.42,14.88,14.88,0,0,1,0-10.57,13.42,13.42,0,0,1,2.78-4.42,13.19,13.19,0,0,1,4.42-3,14.69,14.69,0,0,1,5.87-1.12,14.51,14.51,0,0,1,5.85,1.12,13.25,13.25,0,0,1,4.39,3,13.42,13.42,0,0,1,2.78,4.42,14.88,14.88,0,0,1,0,10.57,13.63,13.63,0,0,1-2.76,4.42,12.9,12.9,0,0,1-4.39,3A14.68,14.68,0,0,1,107.68,37.78Zm-7-13.84a9.33,9.33,0,0,0,.54,3.24,7.93,7.93,0,0,0,1.48,2.53,6.6,6.6,0,0,0,2.22,1.66,6.77,6.77,0,0,0,5.51,0,6.61,6.61,0,0,0,2.22-1.66,7.86,7.86,0,0,0,1.48-2.55,9.53,9.53,0,0,0,.54-3.27,9.37,9.37,0,0,0-.54-3.22,7.85,7.85,0,0,0-1.48-2.55,6.63,6.63,0,0,0-2.22-1.66,6.52,6.52,0,0,0-2.76-.59,6.3,6.3,0,0,0-2.76.61,6.94,6.94,0,0,0-2.22,1.69,7.87,7.87,0,0,0-1.48,2.55A9.4,9.4,0,0,0,100.68,23.94Z"/><path class="cls-1" d="M142,37.52A16.47,16.47,0,0,1,134.76,36a17.75,17.75,0,0,1-5.57-4.14,19.18,19.18,0,0,1-4.87-12.69,18.21,18.21,0,0,1,1.35-6.94,19.16,19.16,0,0,1,3.73-5.87A17.78,17.78,0,0,1,135,2.27a16.76,16.76,0,0,1,7.1-1.51,15.92,15.92,0,0,1,7.17,1.61,17.93,17.93,0,0,1,5.54,4.21,19.39,19.39,0,0,1,3.57,5.92,18.66,18.66,0,0,1,1.28,6.74,18.33,18.33,0,0,1-1.33,6.92A18.79,18.79,0,0,1,154.7,32a17.67,17.67,0,0,1-5.62,4A16.74,16.74,0,0,1,142,37.52ZM131.47,19.14a14.56,14.56,0,0,0,.72,4.54,12.15,12.15,0,0,0,2.07,3.88,10.26,10.26,0,0,0,3.32,2.7,10.27,10.27,0,0,0,9,0,10.29,10.29,0,0,0,3.32-2.78,12.42,12.42,0,0,0,2-3.91,14.52,14.52,0,0,0,.69-4.42,14.16,14.16,0,0,0-.74-4.54,12.57,12.57,0,0,0-2.09-3.88A10,10,0,0,0,146.45,8a10.34,10.34,0,0,0-9,.05,10.08,10.08,0,0,0-3.32,2.76,12.41,12.41,0,0,0-2,3.88A14.5,14.5,0,0,0,131.47,19.14Z"/><path d="M187.44,37.27h-6.79V16.44H170.8V37.27H164V10.52h23.43Z"/><path d="M205.78,37.27H199V16.44h-8.37V10.52H214.1v5.92h-8.32Z"/><path d="M229.71,37.78a14.68,14.68,0,0,1-5.87-1.12,13.18,13.18,0,0,1-4.42-3,13.41,13.41,0,0,1-2.78-4.42,14.88,14.88,0,0,1,0-10.57,13.42,13.42,0,0,1,2.78-4.42,13.19,13.19,0,0,1,4.42-3,14.69,14.69,0,0,1,5.87-1.12,14.51,14.51,0,0,1,5.85,1.12,13.25,13.25,0,0,1,4.39,3,13.42,13.42,0,0,1,2.78,4.42,14.88,14.88,0,0,1,0,10.57A13.63,13.63,0,0,1,240,33.62a12.9,12.9,0,0,1-4.39,3A14.68,14.68,0,0,1,229.71,37.78Zm-7-13.84a9.33,9.33,0,0,0,.54,3.24,7.93,7.93,0,0,0,1.48,2.53A6.6,6.6,0,0,0,227,31.37a6.77,6.77,0,0,0,5.51,0,6.61,6.61,0,0,0,2.22-1.66,7.86,7.86,0,0,0,1.48-2.55,9.53,9.53,0,0,0,.54-3.27,9.37,9.37,0,0,0-.54-3.22,7.85,7.85,0,0,0-1.48-2.55,6.63,6.63,0,0,0-2.22-1.66,6.52,6.52,0,0,0-2.76-.59,6.3,6.3,0,0,0-2.76.61,6.94,6.94,0,0,0-2.22,1.69,7.87,7.87,0,0,0-1.48,2.55A9.4,9.4,0,0,0,222.72,23.94Z"/><path d="M262.92,24.76l7.91-14.24h7V37.27h-6.53V21.19l-6.79,12h-3.22l-6.79-12V37.27H248V10.52h7Z"/></g></g></svg>