<svg xmlns="http://www.w3.org/2000/svg" viewBox="0 0 95.56 96.31"><defs><style>.cls-1{fill:#00974d;}</style></defs><title>Asset 2</title><g id="Layer_2" data-name="Layer 2"><g id="Camada_1" data-name="Camada 1"><path class="cls-1" d="M70.64,57.57c-1.17-.64-7-3.76-8-4.2s-1.88-.67-2.72.5-3.24,3.78-4,4.55-1.43.85-2.6.2a32.51,32.51,0,0,1-9.41-6.3,36.16,36.16,0,0,1-6.35-8.54c-.66-1.23,0-1.85.62-2.43s1.25-1.35,1.87-2a8.08,8.08,0,0,0,1.27-2,2.19,2.19,0,0,0,0-2.1c-.28-.61-2.45-6.59-3.36-9s-1.92-2.07-2.62-2.1S33.83,24,33,24a4.39,4.39,0,0,0-3.25,1.38,13.41,13.41,0,0,0-4.56,9.83c-.22,5.89,3.85,11.74,4.42,12.56s7.79,13.6,19.78,18.85,12.06,3.65,14.26,3.53,7.19-2.63,8.29-5.39,1.2-5.15.92-5.66S71.82,58.21,70.64,57.57Z"/><path class="cls-1" d="M48.65,0A46.93,46.93,0,0,0,8.47,71.14L0,96.31,26,88A46.92,46.92,0,1,0,48.65,0Zm0,86a38.84,38.84,0,0,1-21.49-6.46l-15,4.8L17,69.81A39,39,0,1,1,48.65,86Z"/></g></g></svg>