<svg id="Слой_1" data-name="Слой 1" xmlns="http://www.w3.org/2000/svg" viewBox="0 0 105.73 59.65"><defs><style>.cls-1{fill:#ee2e24;}</style></defs><title>оО</title><g id="Layer_2" data-name="Layer 2"><g id="Layer_1-2" data-name="Layer 1-2"><path class="cls-1" d="M171.27-154.39a23.68,23.68,0,0,1-9.46-1.81,21.22,21.22,0,0,1-7.12-4.89,21.57,21.57,0,0,1-4.48-7.17,23.2,23.2,0,0,1-1.56-8.47,23.44,23.44,0,0,1,1.56-8.53,21.59,21.59,0,0,1,4.48-7.11,21.23,21.23,0,0,1,7.12-4.89,23.67,23.67,0,0,1,9.46-1.81,23.38,23.38,0,0,1,9.41,1.81,21.37,21.37,0,0,1,7.07,4.89,21.65,21.65,0,0,1,4.49,7.11,23.48,23.48,0,0,1,1.56,8.55,23.24,23.24,0,0,1-1.56,8.45,22,22,0,0,1-4.44,7.11,20.79,20.79,0,0,1-7.07,4.89A23.69,23.69,0,0,1,171.27-154.39ZM160-176.68a15.05,15.05,0,0,0,.86,5.22,12.75,12.75,0,0,0,2.39,4.07,10.63,10.63,0,0,0,3.58,2.67,10.9,10.9,0,0,0,8.88,0,10.67,10.67,0,0,0,3.58-2.67,12.68,12.68,0,0,0,2.38-4.11,15.35,15.35,0,0,0,.86-5.26,15.11,15.11,0,0,0-.86-5.18,12.69,12.69,0,0,0-2.38-4.11,10.69,10.69,0,0,0-3.58-2.67,10.51,10.51,0,0,0-4.44-1,10.12,10.12,0,0,0-4.44,1,11.16,11.16,0,0,0-3.58,2.71,12.67,12.67,0,0,0-2.39,4.11A15.16,15.16,0,0,0,160-176.68Z" transform="translate(-148.65 214.03)"/><path class="cls-1" d="M225.84-154.8a26.52,26.52,0,0,1-11.64-2.51,28.55,28.55,0,0,1-9-6.66,30.9,30.9,0,0,1-7.86-20.44,29.36,29.36,0,0,1,2.18-11.19,30.89,30.89,0,0,1,6-9.46,28.66,28.66,0,0,1,9.09-6.54A27,27,0,0,1,226-214a25.64,25.64,0,0,1,11.56,2.59,28.88,28.88,0,0,1,8.92,6.79,31.25,31.25,0,0,1,5.76,9.54,30,30,0,0,1,2.1,10.85,29.55,29.55,0,0,1-2.14,11.15,30.3,30.3,0,0,1-5.92,9.38,28.47,28.47,0,0,1-9,6.5A27,27,0,0,1,225.84-154.8ZM208.9-184.41a23.47,23.47,0,0,0,1.1,7.32,19.52,19.52,0,0,0,3.33,6.25,16.53,16.53,0,0,0,5.35,4.36,16.56,16.56,0,0,0,14.48,0,16.57,16.57,0,0,0,5.35-4.48,20,20,0,0,0,3.33-6.3,23.36,23.36,0,0,0,1.16-7.15,22.77,22.77,0,0,0-1.19-7.32,20.21,20.21,0,0,0-3.37-6.25,16.11,16.11,0,0,0-5.44-4.28,16.66,16.66,0,0,0-14.4,0,16.24,16.24,0,0,0-5.35,4.44,20,20,0,0,0-3.25,6.29A23.38,23.38,0,0,0,208.9-184.41Z" transform="translate(-148.65 214.03)"/></g></g></svg>