<svg xmlns="http://www.w3.org/2000/svg" viewBox="0 0 60.55 60.55"><defs><style>.cls-1{fill:#ee3026;stroke-width:0.25px;}.cls-1,.cls-2{stroke:#ee3026;stroke-miterlimit:10;}.cls-2{fill:none;stroke-width:1.5px;}</style></defs><title>Asset 4</title><g id="Layer_2" data-name="Layer 2"><g id="Layer_1-2" data-name="Layer 1"><path class="cls-1" d="M47.7,17.67a.77.77,0,0,0-.08-.32.63.63,0,0,0-.15-.33l-3.57-4.17H16.64L13.07,17a.63.63,0,0,0-.15.33.77.77,0,0,0-.08.32v6.21h1.74V47.7H46V23.88H47.7ZM17.18,14H43.37l2.49,2.9H14.69ZM44.8,46.54h-29V23.88h29Zm1.74-23.82H14V18.07H46.54Zm0,0"/><path class="cls-1" d="M37.25,26.21H23.3V32H37.25Zm-1.16,4.65H24.47V27.37H36.08Zm0,0"/><path class="cls-1" d="M39,34.92H21.56v8.14H39Zm-1.16,7H22.72V36.08h15.1Zm0,0"/><path class="cls-1" d="M25.63,40.73h2.9a.58.58,0,0,0,0-1.16h-2.9a.58.58,0,1,0,0,1.16Zm0,0"/><path class="cls-1" d="M28.53,38.41h6.39a.58.58,0,1,0,0-1.16H28.53a.58.58,0,1,0,0,1.16Zm0,0"/><path class="cls-1" d="M25.63,38.41a.57.57,0,1,0-.41-.17.6.6,0,0,0,.41.17Zm0,0"/><path class="cls-1" d="M31,39.74a.58.58,0,1,0,.83,0,.61.61,0,0,0-.83,0Zm0,0"/><path class="cls-1" d="M34.92,39.57h-.58a.58.58,0,1,0,0,1.16h.58a.58.58,0,1,0,0-1.16Zm0,0"/><circle class="cls-2" cx="30.27" cy="30.27" r="29.52"/></g></g></svg>